<?xml version="1.0" standalone="no"?>
<!DOCTYPE svg PUBLIC "-//W3C//DTD SVG 20010904//EN"
 "http://www.w3.org/TR/2001/REC-SVG-20010904/DTD/svg10.dtd">
<svg version="1.0" xmlns="http://www.w3.org/2000/svg"
 width="500.000000pt" height="500.000000pt" viewBox="0 0 500.000000 500.000000"
 preserveAspectRatio="xMidYMid meet">

<g transform="translate(0.000000,500.000000) scale(0.100000,-0.100000)"
fill="#000000" stroke="none">
<path d="M2320 4894 c-243 -27 -383 -55 -550 -109 -316 -103 -585 -253 -836
-469 -644 -551 -948 -1414 -793 -2251 100 -542 389 -1042 804 -1392 235 -199
507 -351 795 -446 509 -169 1011 -169 1520 0 828 274 1440 978 1599 1838 155
837 -148 1700 -793 2251 -351 302 -753 485 -1223 559 -93 15 -448 28 -523 19z
m525 -469 c121 -19 177 -35 323 -91 301 -116 517 -258 732 -481 195 -201 299
-361 415 -636 105 -251 129 -384 129 -717 0 -333 -24 -466 -129 -717 -116
-275 -220 -435 -415 -636 -210 -218 -421 -358 -715 -475 -235 -94 -369 -116
-685 -116 -316 0 -450 22 -685 116 -294 117 -505 257 -715 475 -195 201 -299
361 -415 636 -105 251 -129 384 -129 717 0 333 24 466 129 717 122 290 249
478 462 683 167 162 267 234 463 334 215 111 413 176 590 195 52 6 109 13 125
15 64 9 425 -4 520 -19z"/>
<path d="M2835 3549 c-398 -35 -688 -155 -909 -375 -156 -156 -243 -329 -281
-562 -24 -142 -17 -423 13 -532 46 -171 111 -289 217 -395 151 -151 334 -221
601 -232 165 -7 268 6 399 48 126 40 206 90 305 189 142 142 201 286 202 495
2 195 -47 327 -166 453 -84 88 -172 143 -298 185 -88 29 -102 31 -253 31 -188
1 -249 -13 -403 -95 l-94 -50 7 33 c11 55 71 170 117 225 90 108 222 188 393
238 81 23 226 44 418 61 l67 6 0 144 0 144 -117 -1 c-65 -1 -163 -6 -218 -10z
m-182 -1045 c69 -23 147 -99 183 -176 27 -58 29 -72 29 -178 0 -110 -2 -119
-33 -182 -38 -77 -92 -130 -171 -166 -47 -22 -70 -26 -146 -26 -76 0 -99 4
-146 26 -147 68 -228 234 -201 411 32 204 177 326 372 313 36 -3 87 -12 113
-22z"/>
</g>
</svg>
